<?xml version="1.0" encoding="UTF-8"?>
<svg width="512" height="512" viewBox="0 0 512 512" fill="none" xmlns="http://www.w3.org/2000/svg">
  <rect width="512" height="512" fill="#F7F9FC"/>
  <path d="M352 160H160C142.327 160 128 174.327 128 192V320C128 337.673 142.327 352 160 352H352C369.673 352 384 337.673 384 320V192C384 174.327 369.673 160 352 160Z" fill="#FF6B6B"/>
  <path d="M320 208H192C183.163 208 176 215.163 176 224V288C176 296.837 183.163 304 192 304H320C328.837 304 336 296.837 336 288V224C336 215.163 328.837 208 320 208Z" fill="#FF8787"/>
</svg> 