<?xml version="1.0" encoding="UTF-8"?>
<svg width="512" height="512" viewBox="0 0 512 512" fill="none" xmlns="http://www.w3.org/2000/svg">
  <rect width="512" height="512" fill="#F7F9FC"/>
  <path d="M352 128H160C142.327 128 128 142.327 128 160V352C128 369.673 142.327 384 160 384H352C369.673 384 384 369.673 384 352V160C384 142.327 369.673 128 352 128Z" fill="#FF6B6B"/>
  <path d="M320 192H192C183.163 192 176 199.163 176 208V304C176 312.837 183.163 320 192 320H320C328.837 320 336 312.837 336 304V208C336 199.163 328.837 192 320 192Z" fill="#FFFFFF"/>
</svg> 