<?xml version="1.0" encoding="UTF-8"?>
<svg width="512" height="512" viewBox="0 0 512 512" fill="none" xmlns="http://www.w3.org/2000/svg">
  <rect width="512" height="512" fill="#F7F9FC"/>
  <path d="M352 128H160C142.327 128 128 142.327 128 160V352C128 369.673 142.327 384 160 384H352C369.673 384 384 369.673 384 352V160C384 142.327 369.673 128 352 128Z" fill="#4ECDC4"/>
  <path d="M320 176H192C183.163 176 176 183.163 176 192V320C176 328.837 183.163 336 192 336H320C328.837 336 336 328.837 336 320V192C336 183.163 328.837 176 320 176Z" fill="#2C363F"/>
</svg> 